{"title":"Captain.Phillips.2013.720p.BRRip.x264-Fastbet99","uid":9472548,"size":1720285167,"categoryP":"video","categoryS":"hd___movies","magnet":"?xt=urn:btih:7987fac5fac4c706f23af47437be7469289b78db&amp;dn=Captain.Phillips.2013.720p.BRRip.x264-Fastbet99&amp;tr=udp%3A%2F%2Ftracker.openbittorrent.com%3A80&amp;tr=udp%3A%2F%2Fopen.demonii.com%3A1337&amp;tr=udp%3A%2F%2Ftracker.coppersurfer.tk%3A6969&amp;tr=udp%3A%2F%2Fexodus.desync.com%3A6969","seeders":1,"leechers":0,"uploader":"Fastbet99","files":-1,"time":1389614251,"description":"Captain Phillips (2013)\n\nIMDB Info\t\t\t\t : http://www.imdb.com/title/tt1535109\n\nSource\t\t\t\t\t : PHD (Thanks)\nComplete name                            : Captain.Phillips.2013.720p.BRRip.x264-Fastbet99.mp4\nFormat                                   : MPEG-4\nFormat profile                           : Base Media\nCodec ID                                 : isom\nFile size                                : 1.60 GiB\nDuration                                 : 2h 14mn\nOverall bit rate mode                    : Variable\nOverall bit rate                         : 1 711 Kbps\n\nVideo\nID                                       : 1\nFormat                                   : AVC\nFormat/Info                              : Advanced Video Codec\nFormat profile                           : &lt;a class=&quot;__cf_email__&quot; href=&quot;/cdn-cgi/l/email-protection&quot; data-cfemail=&quot;a4eccdc3cce4e8908a95&quot;&gt;[email&amp;#160;protected]&lt;/a&gt;&lt;script cf-hash='f9e31' type=&quot;text/javascript&quot;&gt;\n/* &lt;![CDATA[ */!function(){try{var t=&quot;currentScript&quot;in document?document.currentScript:function(){for(var t=document.getElementsByTagName(&quot;script&quot;),e=t.length;e--;)if(t[e].getAttribute(&quot;cf-hash&quot;))return t[e]}();if(t&amp;&amp;t.previousSibling){var e,r,n,i,c=t.previousSibling,a=c.getAttribute(&quot;data-cfemail&quot;);if(a){for(e=&quot;&quot;,r=parseInt(a.substr(0,2),16),n=2;a.length-n;n+=2)i=parseInt(a.substr(n,2),16)^r,e+=String.fromCharCode(i);e=document.createTextNode(e),c.parentNode.replaceChild(e,c)}}}catch(u){}}();/* ]]&gt; */&lt;/script&gt;\nFormat settings, CABAC                   : Yes\nFormat settings, ReFrames                : 4 frames\nCodec ID                                 : avc1\nCodec ID/Info                            : Advanced Video Coding\nDuration                                 : 2h 14mn\nBit rate                                 : 1 513 Kbps\nMaximum bit rate                         : 9 259 Kbps\nWidth                                    : 1 280 pixels\nHeight                                   : 534 pixels\nDisplay aspect ratio                     : 2.40:1\nFrame rate mode                          : Constant\nFrame rate                               : 23.976 fps\nColor space                              : YUV\nChroma subsampling                       : 4:2:0\nBit depth                                : 8 bits\nScan type                                : Progressive\nBits/(Pixel*Frame)                       : 0.092\nStream size                              : 1.42 GiB (88%)\nWriting library                          : x264 core 138 r2358 9e941d1\n\nAudio #1\nID                                       : 2\nFormat                                   : AAC\nFormat/Info                              : Advanced Audio Codec\nFormat profile                           : LC\nCodec ID                                 : 40\nDuration                                 : 2h 14mn\nBit rate mode                            : Variable\nBit rate                                 : 96.0 Kbps\nMaximum bit rate                         : 144 Kbps\nChannel count                            : 2 channels\nChannel positions                        : Front: L R\nSampling rate                            : 48.0 KHz\nCompression mode                         : Lossy\nStream size                              : 92.0 MiB (6%)\nLanguage                                 : English\n\nAudio #2\nID                                       : 3\nFormat                                   : AAC\nFormat/Info                              : Advanced Audio Codec\nFormat profile                           : LC\nCodec ID                                 : 40\nDuration                                 : 2h 14mn\nBit rate mode                            : Variable\nBit rate                                 : 96.0 Kbps\nMaximum bit rate                         : 140 Kbps\nChannel count                            : 2 channels\nChannel positions                        : Front: L R\nSampling rate                            : 48.0 KHz\nCompression mode                         : Lossy\nStream size                              : 92.0 MiB (6%)\nLanguage                                 : English\n\nText #1\nID                                       : 4\nFormat                                   : Timed Text\nCodec ID                                 : tx3g\nDuration                                 : 2h 9mn\nBit rate mode                            : Variable\nBit rate                                 : 69 bps\nStream size                              : 65.1 KiB (0%)\nLanguage                                 : English\n\nText #2\nID                                       : 5\nFormat                                   : Timed Text\nCodec ID                                 : tx3g\nDuration                                 : 2h 6mn\nBit rate mode                            : Variable\nBit rate                                 : 61 bps\nStream size                              : 56.2 KiB (0%)\nLanguage                                 : English\n\nText #3\nID                                       : 6\nFormat                                   : Timed Text\nCodec ID                                 : tx3g\nDuration                                 : 2h 14mn\nBit rate mode                            : Variable\nBit rate                                 : 50 bps\nStream size                              : 49.1 KiB (0%)\nLanguage                                 : French\n\nText #4\nID                                       : 7\nFormat                                   : Timed Text\nCodec ID                                 : tx3g\nDuration                                 : 2h 14mn\nBit rate mode                            : Variable\nBit rate                                 : 58 bps\nStream size                              : 56.9 KiB (0%)\nLanguage\t\t\t\t : Spain\nEncoder\t\t\t\t\t : Fastbet99\n\nScreenshots\n &lt;a href=&quot;\nhttp://lookpic.com/O/i2/716/VBObO8Ba.jpeg&quot; rel=&quot;nofollow&quot; target=&quot;_NEW&quot;&gt;\nhttp://lookpic.com/O/i2/716/VBObO8Ba.jpeg&lt;/a&gt;\n\nStairway To heaven - Help People With Keep Seed As Long You Can","torrent":{"xt":"urn:btih:7987fac5fac4c706f23af47437be7469289b78db","amp;dn":"Captain.Phillips.2013.720p.BRRip.x264-Fastbet99","amp;tr":["udp%3A%2F%2Ftracker.openbittorrent.com%3A80","udp%3A%2F%2Fopen.demonii.com%3A1337","udp%3A%2F%2Ftracker.coppersurfer.tk%3A6969","udp%3A%2F%2Fexodus.desync.com%3A6969"],"infoHash":"7987fac5fac4c706f23af47437be7469289b78db","infoHashBuffer":{"type":"Buffer","data":[121,135,250,197,250,196,199,6,242,58,244,116,55,190,116,105,40,155,120,219]},"announce":[],"urlList":[]}}